<?xml version="1.0" standalone="no"?><svg xmlns:xlink="http://www.w3.org/1999/xlink" xmlns="http://www.w3.org/2000/svg" viewBox="0 0 1000 727.2727272727273" preserveAspectRatio="xMaxYMax slice"><g transform="scale(1.4012961989840602)"><rect x="0" y="0" width="713.625" height="519" fill="#ffffff"/><rect x="0" y="0" width="64.875" height="64.875" fill="#ffffff"/><rect x="0" y="0" width="32.44" height="32.44" fill="#a3aeb5"/><polygon points="0,0 32.44,0 0,32.44" fill="#cdd3d7"/><rect x="32.44" y="0" width="32.44" height="32.44" fill="#c2ced6"/><polygon points="32.44,0 64.88,32.44 32.44,32.44" fill="#dde4e8"/><rect x="0" y="32.44" width="32.44" height="32.44" fill="#9ca8af"/><polygon points="0,32.44 32.44,32.44 0,64.88" fill="#adb7bd"/><rect x="32.44" y="32.44" width="32.44" height="32.44" fill="#a1b3c0"/><polygon points="32.44,32.44 64.88,32.44 32.44,64.88" fill="#c5d0d8"/><rect x="64.875" y="0" width="64.875" height="64.875" fill="#ffffff"/><rect x="64.88" y="0" width="32.44" height="32.44" fill="#9baebc"/><polygon points="97.32,0 97.32,32.44 64.88,32.44" fill="#9db0be"/><rect x="97.31" y="0" width="32.44" height="32.44" fill="#3c5362"/><polygon points="97.31,0 129.75,0 97.31,32.44" fill="#e3e8ec"/><rect x="64.88" y="32.44" width="32.44" height="32.44" fill="#aeb7be"/><polygon points="97.32,32.44 97.32,64.88 64.88,64.88" fill="#f8f9f9"/><rect x="97.31" y="32.44" width="32.44" height="32.44" fill="#f6f8f9"/><polygon points="97.31,32.44 129.75,64.88 97.31,64.88" fill="#e1e7eb"/><rect x="129.75" y="0" width="64.88" height="64.88" fill="#637682"/><polygon points="129.75,0 194.63,64.88 129.75,64.88" fill="#dde3e8"/><rect x="194.63" y="0" width="64.88" height="64.88" fill="#b0bfca"/><polygon points="259.51,0 259.51,64.88 194.63,64.88" fill="#7e8e97"/><rect x="259.5" y="0" width="64.88" height="64.88" fill="#c8d3da"/><polygon points="259.5,0 324.38,0 324.38,64.88" fill="#b8c1c6"/><rect x="324.38" y="0" width="64.88" height="64.88" fill="#5a6e7b"/><polygon points="389.26,0 389.26,64.88 324.38,64.88" fill="#edeff1"/><rect x="389.25" y="0" width="64.88" height="64.88" fill="#c1cdd6"/><polygon points="389.25,0 454.13,64.88 389.25,64.88" fill="#edf0f3"/><rect x="454.125" y="0" width="64.875" height="64.875" fill="#ffffff"/><rect x="454.13" y="0" width="32.44" height="32.44" fill="#afbec9"/><polygon points="486.57,0 486.57,32.44 454.13,32.44" fill="#dee4e9"/><rect x="486.56" y="0" width="32.44" height="32.44" fill="#f4f5f6"/><polygon points="519,0 519,32.44 486.56,32.44" fill="#c4d0d8"/><rect x="454.13" y="32.44" width="32.44" height="32.44" fill="#c5d0d8"/><polygon points="486.57,32.44 486.57,64.88 454.13,64.88" fill="#8896a0"/><rect x="486.56" y="32.44" width="32.44" height="32.44" fill="#667984"/><polygon points="486.56,32.44 519,32.44 519,64.88" fill="#e8ecf0"/><rect x="519" y="0" width="64.875" height="64.875" fill="#ffffff"/><rect x="519" y="0" width="32.44" height="32.44" fill="#cfd9df"/><polygon points="519,0 551.44,0 551.44,32.44" fill="#bcc9d2"/><rect x="551.44" y="0" width="32.44" height="32.44" fill="#fdfdfe"/><polygon points="551.44,0 583.8800000000001,0 551.44,32.44" fill="#d4d9dc"/><rect x="519" y="32.44" width="32.44" height="32.44" fill="#c1cdd6"/><polygon points="519,32.44 551.44,64.88 519,64.88" fill="#f6f7f8"/><rect x="551.44" y="32.44" width="32.44" height="32.44" fill="#b5c3ce"/><polygon points="551.44,32.44 583.8800000000001,32.44 583.8800000000001,64.88" fill="#e4e9ed"/><rect x="583.88" y="0" width="64.88" height="64.88" fill="#c0ccd5"/><polygon points="583.88,0 648.76,0 648.76,64.88" fill="#b3c2cc"/><rect x="648.75" y="0" width="64.88" height="64.88" fill="#919ea7"/><polygon points="648.75,0 713.63,64.88 648.75,64.88" fill="#c9d0d4"/><rect x="0" y="64.875" width="64.875" height="64.875" fill="#ffffff"/><rect x="0" y="64.88" width="32.44" height="32.44" fill="#d1d6da"/><polygon points="0,64.88 32.44,97.32 0,97.32" fill="#f3f5f7"/><rect x="32.44" y="64.88" width="32.44" height="32.44" fill="#feffff"/><polygon points="32.44,64.88 64.88,64.88 64.88,97.32" fill="#f9fafb"/><rect x="0" y="97.31" width="32.44" height="32.44" fill="#9baebc"/><polygon points="0,97.31 32.44,97.31 0,129.75" fill="#b9c6d0"/><rect x="32.44" y="97.31" width="32.44" height="32.44" fill="#e6e9eb"/><polygon points="32.44,97.31 64.88,97.31 32.44,129.75" fill="#c5d0d8"/><rect x="64.875" y="64.875" width="64.875" height="64.875" fill="#ffffff"/><rect x="64.88" y="64.88" width="32.44" height="32.44" fill="#4e6371"/><polygon points="64.88,64.88 97.32,64.88 64.88,97.32" fill="#9db0bd"/><rect x="97.31" y="64.88" width="32.44" height="32.44" fill="#546976"/><polygon points="97.31,64.88 129.75,64.88 97.31,97.32" fill="#4d6270"/><rect x="64.88" y="97.31" width="32.44" height="32.44" fill="#a4b5c2"/><polygon points="64.88,97.31 97.32,97.31 64.88,129.75" fill="#83929b"/><rect x="97.31" y="97.31" width="32.44" height="32.44" fill="#d5dde3"/><polygon points="97.31,97.31 129.75,97.31 129.75,129.75" fill="#e8ecf0"/><rect x="129.75" y="64.875" width="64.875" height="64.875" fill="#ffffff"/><rect x="129.75" y="64.88" width="32.44" height="32.44" fill="#b0bfca"/><polygon points="129.75,64.88 162.19,64.88 129.75,97.32" fill="#697b87"/><rect x="162.19" y="64.88" width="32.44" height="32.44" fill="#bec6cb"/><polygon points="162.19,64.88 194.63,97.32 162.19,97.32" fill="#eceef0"/><rect x="129.75" y="97.31" width="32.44" height="32.44" fill="#d2d7db"/><polygon points="129.75,97.31 162.19,129.75 129.75,129.75" fill="#c1c8cd"/><rect x="162.19" y="97.31" width="32.44" height="32.44" fill="#e4e9ed"/><polygon points="162.19,97.31 194.63,129.75 162.19,129.75" fill="#eceff2"/><rect x="194.63" y="64.88" width="64.88" height="64.88" fill="#aab4bb"/><polygon points="194.63,64.88 259.51,129.76 194.63,129.76" fill="#d7dcdf"/><rect x="259.5" y="64.875" width="64.875" height="64.875" fill="#ffffff"/><rect x="259.5" y="64.88" width="32.44" height="32.44" fill="#596d79"/><polygon points="259.5,64.88 291.94,64.88 259.5,97.32" fill="#aebec9"/><rect x="291.94" y="64.88" width="32.44" height="32.44" fill="#395160"/><polygon points="324.38,64.88 324.38,97.32 291.94,97.32" fill="#e5eaee"/><rect x="259.5" y="97.31" width="32.44" height="32.44" fill="#637682"/><polygon points="259.5,97.31 291.94,129.75 259.5,129.75" fill="#e5eaee"/><rect x="291.94" y="97.31" width="32.44" height="32.44" fill="#3c5463"/><polygon points="291.94,97.31 324.38,97.31 291.94,129.75" fill="#a6b7c3"/><rect x="324.38" y="64.88" width="64.88" height="64.88" fill="#d4dce2"/><polygon points="324.38,64.88 389.26,64.88 389.26,129.76" fill="#83929c"/><rect x="389.25" y="64.875" width="64.875" height="64.875" fill="#ffffff"/><rect x="389.25" y="64.88" width="32.44" height="32.44" fill="#c2cdd6"/><polygon points="389.25,64.88 421.69,97.32 389.25,97.32" fill="#a6b1b7"/><rect x="421.69" y="64.88" width="32.44" height="32.44" fill="#8997a0"/><polygon points="421.69,64.88 454.13,64.88 421.69,97.32" fill="#3c5463"/><rect x="389.25" y="97.31" width="32.44" height="32.44" fill="#bcc8d2"/><polygon points="389.25,97.31 421.69,97.31 421.69,129.75" fill="#e4e9ed"/><rect x="421.69" y="97.31" width="32.44" height="32.44" fill="#bfc7cc"/><polygon points="421.69,97.31 454.13,97.31 454.13,129.75" fill="#bdc5ca"/><rect x="454.125" y="64.875" width="64.875" height="64.875" fill="#ffffff"/><rect x="454.13" y="64.88" width="32.44" height="32.44" fill="#5f727f"/><polygon points="486.57,64.88 486.57,97.32 454.13,97.32" fill="#f7f8f9"/><rect x="486.56" y="64.88" width="32.44" height="32.44" fill="#bac7d1"/><polygon points="486.56,64.88 519,64.88 519,97.32" fill="#c0c7cc"/><rect x="454.13" y="97.31" width="32.44" height="32.44" fill="#70818c"/><polygon points="454.13,97.31 486.57,97.31 486.57,129.75" fill="#b6bfc4"/><rect x="486.56" y="97.31" width="32.44" height="32.44" fill="#e2e8ec"/><polygon points="486.56,97.31 519,97.31 519,129.75" fill="#a0b2bf"/><rect x="519" y="64.88" width="64.88" height="64.88" fill="#fefefe"/><polygon points="519,64.88 583.88,64.88 519,129.76" fill="#bac7d1"/><rect x="583.88" y="64.88" width="64.88" height="64.88" fill="#a1b3c0"/><polygon points="583.88,64.88 648.76,64.88 648.76,129.76" fill="#495f6d"/><rect x="648.75" y="64.875" width="64.875" height="64.875" fill="#ffffff"/><rect x="648.75" y="64.88" width="32.44" height="32.44" fill="#72838e"/><polygon points="648.75,64.88 681.19,97.32 648.75,97.32" fill="#a6b1b8"/><rect x="681.19" y="64.88" width="32.44" height="32.44" fill="#a1adb4"/><polygon points="713.6300000000001,64.88 713.6300000000001,97.32 681.19,97.32" fill="#9ba7af"/><rect x="648.75" y="97.31" width="32.44" height="32.44" fill="#4d6270"/><polygon points="648.75,97.31 681.19,129.75 648.75,129.75" fill="#99a5ad"/><rect x="681.19" y="97.31" width="32.44" height="32.44" fill="#d0d9e0"/><polygon points="681.19,97.31 713.6300000000001,129.75 681.19,129.75" fill="#f2f3f4"/><rect x="0" y="129.75" width="64.88" height="64.88" fill="#b4bdc3"/><polygon points="0,129.75 64.88,129.75 0,194.63" fill="#465d6b"/><rect x="64.875" y="129.75" width="64.875" height="64.875" fill="#ffffff"/><rect x="64.88" y="129.75" width="32.44" height="32.44" fill="#bec6cb"/><polygon points="64.88,129.75 97.32,129.75 64.88,162.19" fill="#cad1d5"/><rect x="97.31" y="129.75" width="32.44" height="32.44" fill="#edeff1"/><polygon points="97.31,129.75 129.75,162.19 97.31,162.19" fill="#bdc9d3"/><rect x="64.88" y="162.19" width="32.44" height="32.44" fill="#bfcbd4"/><polygon points="97.32,162.19 97.32,194.63 64.88,194.63" fill="#d9e0e6"/><rect x="97.31" y="162.19" width="32.44" height="32.44" fill="#637682"/><polygon points="97.31,162.19 129.75,162.19 97.31,194.63" fill="#e5eaed"/><rect x="129.75" y="129.75" width="64.875" height="64.875" fill="#ffffff"/><rect x="129.75" y="129.75" width="32.44" height="32.44" fill="#526674"/><polygon points="162.19,129.75 162.19,162.19 129.75,162.19" fill="#aeb8be"/><rect x="162.19" y="129.75" width="32.44" height="32.44" fill="#99a5ad"/><polygon points="194.63,129.75 194.63,162.19 162.19,162.19" fill="#5b6e7b"/><rect x="129.75" y="162.19" width="32.44" height="32.44" fill="#cdd3d7"/><polygon points="129.75,162.19 162.19,162.19 162.19,194.63" fill="#eff2f4"/><rect x="162.19" y="162.19" width="32.44" height="32.44" fill="#9eb0be"/><polygon points="162.19,162.19 194.63,162.19 162.19,194.63" fill="#fefefe"/><rect x="194.625" y="129.75" width="64.875" height="64.875" fill="#ffffff"/><rect x="194.63" y="129.75" width="32.44" height="32.44" fill="#bac7d1"/><polygon points="194.63,129.75 227.07,129.75 194.63,162.19" fill="#c5d0d8"/><rect x="227.06" y="129.75" width="32.44" height="32.44" fill="#4b606e"/><polygon points="227.06,129.75 259.5,129.75 227.06,162.19" fill="#a9b9c5"/><rect x="194.63" y="162.19" width="32.44" height="32.44" fill="#a6b0b7"/><polygon points="194.63,162.19 227.07,194.63 194.63,194.63" fill="#c2ced6"/><rect x="227.06" y="162.19" width="32.44" height="32.44" fill="#bfcbd4"/><polygon points="227.06,162.19 259.5,162.19 227.06,194.63" fill="#fcfdfd"/><rect x="259.5" y="129.75" width="64.88" height="64.88" fill="#c6cdd1"/><polygon points="259.5,129.75 324.38,129.75 324.38,194.63" fill="#cdd7de"/><rect x="324.38" y="129.75" width="64.88" height="64.88" fill="#b3bcc2"/><polygon points="324.38,129.75 389.26,129.75 324.38,194.63" fill="#83929c"/><rect x="389.25" y="129.75" width="64.875" height="64.875" fill="#ffffff"/><rect x="389.25" y="129.75" width="32.44" height="32.44" fill="#bcc9d2"/><polygon points="389.25,129.75 421.69,129.75 389.25,162.19" fill="#637682"/><rect x="421.69" y="129.75" width="32.44" height="32.44" fill="#637682"/><polygon points="454.13,129.75 454.13,162.19 421.69,162.19" fill="#374f5f"/><rect x="389.25" y="162.19" width="32.44" height="32.44" fill="#637682"/><polygon points="389.25,162.19 421.69,162.19 389.25,194.63" fill="#b9c7d0"/><rect x="421.69" y="162.19" width="32.44" height="32.44" fill="#acbcc7"/><polygon points="421.69,162.19 454.13,162.19 454.13,194.63" fill="#eef1f4"/><rect x="454.13" y="129.75" width="64.88" height="64.88" fill="#f6f7f8"/><polygon points="454.13,129.75 519.01,129.75 519.01,194.63" fill="#b4bdc3"/><rect x="519" y="129.75" width="64.875" height="64.875" fill="#ffffff"/><rect x="519" y="129.75" width="32.44" height="32.44" fill="#d8e0e5"/><polygon points="519,129.75 551.44,129.75 519,162.19" fill="#a1b3c0"/><rect x="551.44" y="129.75" width="32.44" height="32.44" fill="#9da9b1"/><polygon points="551.44,129.75 583.8800000000001,129.75 583.8800000000001,162.19" fill="#d1dae0"/><rect x="519" y="162.19" width="32.44" height="32.44" fill="#e6e9eb"/><polygon points="519,162.19 551.44,194.63 519,194.63" fill="#cbd1d5"/><rect x="551.44" y="162.19" width="32.44" height="32.44" fill="#c6d1d9"/><polygon points="551.44,162.19 583.8800000000001,162.19 551.44,194.63" fill="#e1e6eb"/><rect x="583.875" y="129.75" width="64.875" height="64.875" fill="#ffffff"/><rect x="583.88" y="129.75" width="32.44" height="32.44" fill="#3e5564"/><polygon points="583.88,129.75 616.3199999999999,162.19 583.88,162.19" fill="#d3dbe1"/><rect x="616.31" y="129.75" width="32.44" height="32.44" fill="#eaeef1"/><polygon points="648.75,129.75 648.75,162.19 616.31,162.19" fill="#324b5b"/><rect x="583.88" y="162.19" width="32.44" height="32.44" fill="#72838e"/><polygon points="616.3199999999999,162.19 616.3199999999999,194.63 583.88,194.63" fill="#b1c0cb"/><rect x="616.31" y="162.19" width="32.44" height="32.44" fill="#354d5c"/><polygon points="648.75,162.19 648.75,194.63 616.31,194.63" fill="#617480"/><rect x="648.75" y="129.75" width="64.875" height="64.875" fill="#ffffff"/><rect x="648.75" y="129.75" width="32.44" height="32.44" fill="#dce3e7"/><polygon points="648.75,129.75 681.19,129.75 648.75,162.19" fill="#fafafb"/><rect x="681.19" y="129.75" width="32.44" height="32.44" fill="#919ea6"/><polygon points="713.6300000000001,129.75 713.6300000000001,162.19 681.19,162.19" fill="#506572"/><rect x="648.75" y="162.19" width="32.44" height="32.44" fill="#e4e7e9"/><polygon points="648.75,162.19 681.19,162.19 648.75,194.63" fill="#d6dee4"/><rect x="681.19" y="162.19" width="32.44" height="32.44" fill="#bfcbd4"/><polygon points="681.19,162.19 713.6300000000001,162.19 713.6300000000001,194.63" fill="#fdfdfd"/><rect x="0" y="194.63" width="64.88" height="64.88" fill="#a5b6c2"/><polygon points="64.88,194.63 64.88,259.51 0,259.51" fill="#e4e9ed"/><rect x="64.88" y="194.63" width="64.88" height="64.88" fill="#e8edf0"/><polygon points="64.88,194.63 129.76,259.51 64.88,259.51" fill="#f8f9f9"/><rect x="129.75" y="194.63" width="64.88" height="64.88" fill="#b9c2c7"/><polygon points="129.75,194.63 194.63,194.63 129.75,259.51" fill="#aebdc9"/><rect x="194.625" y="194.625" width="64.875" height="64.875" fill="#ffffff"/><rect x="194.63" y="194.63" width="32.44" height="32.44" fill="#e2e8ec"/><polygon points="194.63,194.63 227.07,227.07 194.63,227.07" fill="#e0e6eb"/><rect x="227.06" y="194.63" width="32.44" height="32.44" fill="#6c7d89"/><polygon points="227.06,194.63 259.5,194.63 227.06,227.07" fill="#e7ebef"/><rect x="194.63" y="227.06" width="32.44" height="32.44" fill="#758590"/><polygon points="194.63,227.06 227.07,259.5 194.63,259.5" fill="#38505f"/><rect x="227.06" y="227.06" width="32.44" height="32.44" fill="#b6c4ce"/><polygon points="259.5,227.06 259.5,259.5 227.06,259.5" fill="#465c6a"/><rect x="259.5" y="194.63" width="64.88" height="64.88" fill="#aebec9"/><polygon points="259.5,194.63 324.38,194.63 324.38,259.51" fill="#b4c2cd"/><rect x="324.38" y="194.63" width="64.88" height="64.88" fill="#516673"/><polygon points="324.38,194.63 389.26,259.51 324.38,259.51" fill="#73848f"/><rect x="389.25" y="194.625" width="64.875" height="64.875" fill="#ffffff"/><rect x="389.25" y="194.63" width="32.44" height="32.44" fill="#dde1e4"/><polygon points="389.25,194.63 421.69,194.63 389.25,227.07" fill="#b3bcc2"/><rect x="421.69" y="194.63" width="32.44" height="32.44" fill="#a3b4c1"/><polygon points="454.13,194.63 454.13,227.07 421.69,227.07" fill="#9fb1bf"/><rect x="389.25" y="227.06" width="32.44" height="32.44" fill="#83929b"/><polygon points="389.25,227.06 421.69,227.06 389.25,259.5" fill="#b4c2cd"/><rect x="421.69" y="227.06" width="32.44" height="32.44" fill="#a6b7c3"/><polygon points="454.13,227.06 454.13,259.5 421.69,259.5" fill="#c4cfd8"/><rect x="454.125" y="194.625" width="64.875" height="64.875" fill="#ffffff"/><rect x="454.13" y="194.63" width="32.44" height="32.44" fill="#f2f4f6"/><polygon points="486.57,194.63 486.57,227.07 454.13,227.07" fill="#bac7d1"/><rect x="486.56" y="194.63" width="32.44" height="32.44" fill="#607380"/><polygon points="486.56,194.63 519,194.63 519,227.07" fill="#d7dfe4"/><rect x="454.13" y="227.06" width="32.44" height="32.44" fill="#bec6cb"/><polygon points="486.57,227.06 486.57,259.5 454.13,259.5" fill="#f3f6f7"/><rect x="486.56" y="227.06" width="32.44" height="32.44" fill="#86959e"/><polygon points="519,227.06 519,259.5 486.56,259.5" fill="#9baebc"/><rect x="519" y="194.625" width="64.875" height="64.875" fill="#ffffff"/><rect x="519" y="194.63" width="32.44" height="32.44" fill="#70818c"/><polygon points="519,194.63 551.44,227.07 519,227.07" fill="#86949e"/><rect x="551.44" y="194.63" width="32.44" height="32.44" fill="#bac3c8"/><polygon points="583.8800000000001,194.63 583.8800000000001,227.07 551.44,227.07" fill="#dee2e5"/><rect x="519" y="227.06" width="32.44" height="32.44" fill="#455c6a"/><polygon points="519,227.06 551.44,227.06 519,259.5" fill="#a2aeb5"/><rect x="551.44" y="227.06" width="32.44" height="32.44" fill="#87959e"/><polygon points="551.44,227.06 583.8800000000001,259.5 551.44,259.5" fill="#c7cdd2"/><rect x="583.88" y="194.63" width="64.88" height="64.88" fill="#bac2c7"/><polygon points="583.88,194.63 648.76,194.63 648.76,259.51" fill="#9dafbd"/><rect x="648.75" y="194.63" width="64.88" height="64.88" fill="#c1cdd6"/><polygon points="648.75,194.63 713.63,194.63 713.63,259.51" fill="#495f6d"/><rect x="0" y="259.5" width="64.875" height="64.875" fill="#ffffff"/><rect x="0" y="259.5" width="32.44" height="32.44" fill="#f7f9fa"/><polygon points="32.44,259.5 32.44,291.94 0,291.94" fill="#afbec9"/><rect x="32.44" y="259.5" width="32.44" height="32.44" fill="#f0f3f5"/><polygon points="64.88,259.5 64.88,291.94 32.44,291.94" fill="#cbd1d5"/><rect x="0" y="291.94" width="32.44" height="32.44" fill="#d6dbde"/><polygon points="32.44,291.94 32.44,324.38 0,324.38" fill="#c4cfd7"/><rect x="32.44" y="291.94" width="32.44" height="32.44" fill="#6c7e89"/><polygon points="64.88,291.94 64.88,324.38 32.44,324.38" fill="#dce2e7"/><rect x="64.88" y="259.5" width="64.88" height="64.88" fill="#edeff1"/><polygon points="64.88,259.5 129.76,324.38 64.88,324.38" fill="#e2e7eb"/><rect x="129.75" y="259.5" width="64.875" height="64.875" fill="#ffffff"/><rect x="129.75" y="259.5" width="32.44" height="32.44" fill="#9eb1be"/><polygon points="162.19,259.5 162.19,291.94 129.75,291.94" fill="#c2cdd6"/><rect x="162.19" y="259.5" width="32.44" height="32.44" fill="#d5dde3"/><polygon points="162.19,259.5 194.63,259.5 194.63,291.94" fill="#adbdc8"/><rect x="129.75" y="291.94" width="32.44" height="32.44" fill="#a1b3c0"/><polygon points="129.75,291.94 162.19,324.38 129.75,324.38" fill="#a6b7c3"/><rect x="162.19" y="291.94" width="32.44" height="32.44" fill="#536875"/><polygon points="162.19,291.94 194.63,291.94 194.63,324.38" fill="#cfd8df"/><rect x="194.63" y="259.5" width="64.88" height="64.88" fill="#556976"/><polygon points="259.51,259.5 259.51,324.38 194.63,324.38" fill="#e3e9ed"/><rect x="259.5" y="259.5" width="64.88" height="64.88" fill="#bbc8d2"/><polygon points="259.5,259.5 324.38,259.5 259.5,324.38" fill="#c3ced7"/><rect x="324.38" y="259.5" width="64.88" height="64.88" fill="#f6f8f9"/><polygon points="324.38,259.5 389.26,324.38 324.38,324.38" fill="#314a5a"/><rect x="389.25" y="259.5" width="64.875" height="64.875" fill="#ffffff"/><rect x="389.25" y="259.5" width="32.44" height="32.44" fill="#e0e6ea"/><polygon points="389.25,259.5 421.69,291.94 389.25,291.94" fill="#cdd7de"/><rect x="421.69" y="259.5" width="32.44" height="32.44" fill="#bbc8d2"/><polygon points="454.13,259.5 454.13,291.94 421.69,291.94" fill="#6e808b"/><rect x="389.25" y="291.94" width="32.44" height="32.44" fill="#bbc3c9"/><polygon points="421.69,291.94 421.69,324.38 389.25,324.38" fill="#304959"/><rect x="421.69" y="291.94" width="32.44" height="32.44" fill="#e6ebee"/><polygon points="421.69,291.94 454.13,291.94 454.13,324.38" fill="#a1b3c0"/><rect x="454.125" y="259.5" width="64.875" height="64.875" fill="#ffffff"/><rect x="454.13" y="259.5" width="32.44" height="32.44" fill="#a5b6c3"/><polygon points="454.13,259.5 486.57,259.5 454.13,291.94" fill="#bcc8d2"/><rect x="486.56" y="259.5" width="32.44" height="32.44" fill="#d6dbde"/><polygon points="519,259.5 519,291.94 486.56,291.94" fill="#bac2c7"/><rect x="454.13" y="291.94" width="32.44" height="32.44" fill="#f1f3f4"/><polygon points="454.13,291.94 486.57,324.38 454.13,324.38" fill="#ecf0f2"/><rect x="486.56" y="291.94" width="32.44" height="32.44" fill="#6d7e8a"/><polygon points="486.56,291.94 519,324.38 486.56,324.38" fill="#e8ecef"/><rect x="519" y="259.5" width="64.88" height="64.88" fill="#a9b9c5"/><polygon points="519,259.5 583.88,324.38 519,324.38" fill="#d3d8db"/><rect x="583.875" y="259.5" width="64.875" height="64.875" fill="#ffffff"/><rect x="583.88" y="259.5" width="32.44" height="32.44" fill="#cbd5dc"/><polygon points="583.88,259.5 616.3199999999999,259.5 583.88,291.94" fill="#edeff0"/><rect x="616.31" y="259.5" width="32.44" height="32.44" fill="#e1e6eb"/><polygon points="616.31,259.5 648.75,259.5 616.31,291.94" fill="#e9edf1"/><rect x="583.88" y="291.94" width="32.44" height="32.44" fill="#c9d4db"/><polygon points="583.88,291.94 616.3199999999999,291.94 616.3199999999999,324.38" fill="#dfe2e5"/><rect x="616.31" y="291.94" width="32.44" height="32.44" fill="#374f5e"/><polygon points="616.31,291.94 648.75,291.94 616.31,324.38" fill="#909da6"/><rect x="648.75" y="259.5" width="64.875" height="64.875" fill="#ffffff"/><rect x="648.75" y="259.5" width="32.44" height="32.44" fill="#ffffff"/><polygon points="681.19,259.5 681.19,291.94 648.75,291.94" fill="#eceff0"/><rect x="681.19" y="259.5" width="32.44" height="32.44" fill="#b3bcc2"/><polygon points="713.6300000000001,259.5 713.6300000000001,291.94 681.19,291.94" fill="#bfcbd4"/><rect x="648.75" y="291.94" width="32.44" height="32.44" fill="#4c6270"/><polygon points="648.75,291.94 681.19,291.94 681.19,324.38" fill="#f4f6f7"/><rect x="681.19" y="291.94" width="32.44" height="32.44" fill="#f2f4f5"/><polygon points="681.19,291.94 713.6300000000001,291.94 681.19,324.38" fill="#a5afb6"/><rect x="0" y="324.38" width="64.88" height="64.88" fill="#ccd6dd"/><polygon points="0,324.38 64.88,324.38 0,389.26" fill="#b7c5cf"/><rect x="64.88" y="324.38" width="64.88" height="64.88" fill="#e3e8ec"/><polygon points="64.88,324.38 129.76,324.38 64.88,389.26" fill="#dbe2e7"/><rect x="129.75" y="324.38" width="64.88" height="64.88" fill="#72838e"/><polygon points="129.75,324.38 194.63,389.26 129.75,389.26" fill="#6e7f8a"/><rect x="194.63" y="324.38" width="64.88" height="64.88" fill="#a7b1b8"/><polygon points="194.63,324.38 259.51,324.38 194.63,389.26" fill="#dfe5ea"/><rect x="259.5" y="324.38" width="64.88" height="64.88" fill="#acb6bd"/><polygon points="259.5,324.38 324.38,324.38 324.38,389.26" fill="#b0bfca"/><rect x="324.375" y="324.375" width="64.875" height="64.875" fill="#ffffff"/><rect x="324.38" y="324.38" width="32.44" height="32.44" fill="#b0bac0"/><polygon points="324.38,324.38 356.82,324.38 324.38,356.82" fill="#bac7d1"/><rect x="356.81" y="324.38" width="32.44" height="32.44" fill="#e7eaec"/><polygon points="356.81,324.38 389.25,324.38 356.81,356.82" fill="#c7d2d9"/><rect x="324.38" y="356.81" width="32.44" height="32.44" fill="#ccd2d6"/><polygon points="324.38,356.81 356.82,389.25 324.38,389.25" fill="#eef0f1"/><rect x="356.81" y="356.81" width="32.44" height="32.44" fill="#becad3"/><polygon points="389.25,356.81 389.25,389.25 356.81,389.25" fill="#687a86"/><rect x="389.25" y="324.38" width="64.88" height="64.88" fill="#afbec9"/><polygon points="389.25,324.38 454.13,324.38 454.13,389.26" fill="#e0e6ea"/><rect x="454.13" y="324.38" width="64.88" height="64.88" fill="#fafbfc"/><polygon points="454.13,324.38 519.01,324.38 454.13,389.26" fill="#bbc3c9"/><rect x="519" y="324.38" width="64.88" height="64.88" fill="#546976"/><polygon points="519,324.38 583.88,324.38 583.88,389.26" fill="#fafafb"/><rect x="583.875" y="324.375" width="64.875" height="64.875" fill="#ffffff"/><rect x="583.88" y="324.38" width="32.44" height="32.44" fill="#b0bac0"/><polygon points="583.88,324.38 616.3199999999999,356.82 583.88,356.82" fill="#fcfdfd"/><rect x="616.31" y="324.38" width="32.44" height="32.44" fill="#b2c1cc"/><polygon points="616.31,324.38 648.75,356.82 616.31,356.82" fill="#f6f7f8"/><rect x="583.88" y="356.81" width="32.44" height="32.44" fill="#a7b2b8"/><polygon points="616.3199999999999,356.81 616.3199999999999,389.25 583.88,389.25" fill="#d7dee4"/><rect x="616.31" y="356.81" width="32.44" height="32.44" fill="#b3c2cc"/><polygon points="616.31,356.81 648.75,356.81 616.31,389.25" fill="#e8ecef"/><rect x="648.75" y="324.375" width="64.875" height="64.875" fill="#ffffff"/><rect x="648.75" y="324.38" width="32.44" height="32.44" fill="#f7f9fa"/><polygon points="648.75,324.38 681.19,324.38 648.75,356.82" fill="#f7f8fa"/><rect x="681.19" y="324.38" width="32.44" height="32.44" fill="#465c6b"/><polygon points="681.19,324.38 713.6300000000001,324.38 713.6300000000001,356.82" fill="#ccd5dd"/><rect x="648.75" y="356.81" width="32.44" height="32.44" fill="#465c6b"/><polygon points="648.75,356.81 681.19,356.81 648.75,389.25" fill="#ebeff2"/><rect x="681.19" y="356.81" width="32.44" height="32.44" fill="#d1dae0"/><polygon points="681.19,356.81 713.6300000000001,389.25 681.19,389.25" fill="#edf0f3"/><rect x="0" y="389.25" width="64.875" height="64.875" fill="#ffffff"/><rect x="0" y="389.25" width="32.44" height="32.44" fill="#c2ced6"/><polygon points="32.44,389.25 32.44,421.69 0,421.69" fill="#9fb1bf"/><rect x="32.44" y="389.25" width="32.44" height="32.44" fill="#e9eef1"/><polygon points="32.44,389.25 64.88,389.25 64.88,421.69" fill="#d9e0e6"/><rect x="0" y="421.69" width="32.44" height="32.44" fill="#f2f4f5"/><polygon points="0,421.69 32.44,421.69 32.44,454.13" fill="#415766"/><rect x="32.44" y="421.69" width="32.44" height="32.44" fill="#c1c9cd"/><polygon points="32.44,421.69 64.88,454.13 32.44,454.13" fill="#94a1a9"/><rect x="64.875" y="389.25" width="64.875" height="64.875" fill="#ffffff"/><rect x="64.88" y="389.25" width="32.44" height="32.44" fill="#ccd3d6"/><polygon points="64.88,389.25 97.32,389.25 64.88,421.69" fill="#d9dde0"/><rect x="97.31" y="389.25" width="32.44" height="32.44" fill="#93a0a9"/><polygon points="97.31,389.25 129.75,389.25 97.31,421.69" fill="#edf0f3"/><rect x="64.88" y="421.69" width="32.44" height="32.44" fill="#d8dde0"/><polygon points="97.32,421.69 97.32,454.13 64.88,454.13" fill="#c5d0d8"/><rect x="97.31" y="421.69" width="32.44" height="32.44" fill="#fafbfb"/><polygon points="97.31,421.69 129.75,454.13 97.31,454.13" fill="#516673"/><rect x="129.75" y="389.25" width="64.88" height="64.88" fill="#e8ecf0"/><polygon points="129.75,389.25 194.63,389.25 194.63,454.13" fill="#e6ebee"/><rect x="194.625" y="389.25" width="64.875" height="64.875" fill="#ffffff"/><rect x="194.63" y="389.25" width="32.44" height="32.44" fill="#687a86"/><polygon points="194.63,389.25 227.07,389.25 194.63,421.69" fill="#e7ebef"/><rect x="227.06" y="389.25" width="32.44" height="32.44" fill="#b9c2c7"/><polygon points="227.06,389.25 259.5,389.25 259.5,421.69" fill="#abb5bc"/><rect x="194.63" y="421.69" width="32.44" height="32.44" fill="#9eb0be"/><polygon points="227.07,421.69 227.07,454.13 194.63,454.13" fill="#526774"/><rect x="227.06" y="421.69" width="32.44" height="32.44" fill="#475e6c"/><polygon points="259.5,421.69 259.5,454.13 227.06,454.13" fill="#e0e6ea"/><rect x="259.5" y="389.25" width="64.88" height="64.88" fill="#f6f8f9"/><polygon points="259.5,389.25 324.38,389.25 324.38,454.13" fill="#f2f4f5"/><rect x="324.375" y="389.25" width="64.875" height="64.875" fill="#ffffff"/><rect x="324.38" y="389.25" width="32.44" height="32.44" fill="#ebedef"/><polygon points="324.38,389.25 356.82,389.25 324.38,421.69" fill="#fefefe"/><rect x="356.81" y="389.25" width="32.44" height="32.44" fill="#d2d7db"/><polygon points="356.81,389.25 389.25,389.25 356.81,421.69" fill="#b5c3cd"/><rect x="324.38" y="421.69" width="32.44" height="32.44" fill="#a3aeb5"/><polygon points="324.38,421.69 356.82,454.13 324.38,454.13" fill="#9eaab1"/><rect x="356.81" y="421.69" width="32.44" height="32.44" fill="#a0abb3"/><polygon points="356.81,421.69 389.25,421.69 356.81,454.13" fill="#f6f8f9"/><rect x="389.25" y="389.25" width="64.88" height="64.88" fill="#a8b9c5"/><polygon points="454.13,389.25 454.13,454.13 389.25,454.13" fill="#c9cfd3"/><rect x="454.13" y="389.25" width="64.88" height="64.88" fill="#b7c5cf"/><polygon points="519.01,389.25 519.01,454.13 454.13,454.13" fill="#d9dde0"/><rect x="519" y="389.25" width="64.88" height="64.88" fill="#3b5261"/><polygon points="519,389.25 583.88,389.25 583.88,454.13" fill="#f9fafb"/><rect x="583.875" y="389.25" width="64.875" height="64.875" fill="#ffffff"/><rect x="583.88" y="389.25" width="32.44" height="32.44" fill="#d3dbe1"/><polygon points="583.88,389.25 616.3199999999999,421.69 583.88,421.69" fill="#eef0f1"/><rect x="616.31" y="389.25" width="32.44" height="32.44" fill="#b8c5cf"/><polygon points="648.75,389.25 648.75,421.69 616.31,421.69" fill="#fafbfb"/><rect x="583.88" y="421.69" width="32.44" height="32.44" fill="#a4b5c2"/><polygon points="583.88,421.69 616.3199999999999,421.69 616.3199999999999,454.13" fill="#a7b2b8"/><rect x="616.31" y="421.69" width="32.44" height="32.44" fill="#3e5664"/><polygon points="616.31,421.69 648.75,421.69 616.31,454.13" fill="#d7dee4"/><rect x="648.75" y="389.25" width="64.88" height="64.88" fill="#435a68"/><polygon points="648.75,389.25 713.63,389.25 648.75,454.13" fill="#a3aeb5"/><rect x="0" y="454.13" width="64.88" height="64.88" fill="#e1e4e7"/><polygon points="0,454.13 64.88,454.13 0,519.01" fill="#f7f8f9"/><rect x="64.875" y="454.125" width="64.875" height="64.875" fill="#ffffff"/><rect x="64.88" y="454.13" width="32.44" height="32.44" fill="#364e5e"/><polygon points="64.88,454.13 97.32,454.13 97.32,486.57" fill="#dee4e9"/><rect x="97.31" y="454.13" width="32.44" height="32.44" fill="#fafbfc"/><polygon points="129.75,454.13 129.75,486.57 97.31,486.57" fill="#5a6e7b"/><rect x="64.88" y="486.56" width="32.44" height="32.44" fill="#c7d1d9"/><polygon points="64.88,486.56 97.32,486.56 64.88,519" fill="#87959f"/><rect x="97.31" y="486.56" width="32.44" height="32.44" fill="#a0b2bf"/><polygon points="97.31,486.56 129.75,486.56 129.75,519" fill="#9dafbd"/><rect x="129.75" y="454.125" width="64.875" height="64.875" fill="#ffffff"/><rect x="129.75" y="454.13" width="32.44" height="32.44" fill="#bdc5ca"/><polygon points="162.19,454.13 162.19,486.57 129.75,486.57" fill="#ced7de"/><rect x="162.19" y="454.13" width="32.44" height="32.44" fill="#70828d"/><polygon points="162.19,454.13 194.63,454.13 194.63,486.57" fill="#c2cace"/><rect x="129.75" y="486.56" width="32.44" height="32.44" fill="#dce3e8"/><polygon points="129.75,486.56 162.19,519 129.75,519" fill="#dbe2e7"/><rect x="162.19" y="486.56" width="32.44" height="32.44" fill="#f6f7f8"/><polygon points="194.63,486.56 194.63,519 162.19,519" fill="#72838e"/><rect x="194.63" y="454.13" width="64.88" height="64.88" fill="#aabac6"/><polygon points="194.63,454.13 259.51,454.13 194.63,519.01" fill="#9eaab1"/><rect x="259.5" y="454.13" width="64.88" height="64.88" fill="#e6ebee"/><polygon points="259.5,454.13 324.38,454.13 259.5,519.01" fill="#afb9bf"/><rect x="324.38" y="454.13" width="64.88" height="64.88" fill="#768691"/><polygon points="389.26,454.13 389.26,519.01 324.38,519.01" fill="#c5d0d8"/><rect x="389.25" y="454.13" width="64.88" height="64.88" fill="#c6d0d8"/><polygon points="389.25,454.13 454.13,519.01 389.25,519.01" fill="#435a68"/><rect x="454.13" y="454.13" width="64.88" height="64.88" fill="#a5b6c3"/><polygon points="454.13,454.13 519.01,454.13 519.01,519.01" fill="#7c8c96"/><rect x="519" y="454.125" width="64.875" height="64.875" fill="#ffffff"/><rect x="519" y="454.13" width="32.44" height="32.44" fill="#c8ced3"/><polygon points="519,454.13 551.44,486.57 519,486.57" fill="#e4e9ed"/><rect x="551.44" y="454.13" width="32.44" height="32.44" fill="#cfd8df"/><polygon points="551.44,454.13 583.8800000000001,454.13 583.8800000000001,486.57" fill="#dee2e4"/><rect x="519" y="486.56" width="32.44" height="32.44" fill="#ced8de"/><polygon points="519,486.56 551.44,486.56 519,519" fill="#a1acb3"/><rect x="551.44" y="486.56" width="32.44" height="32.44" fill="#d4dce2"/><polygon points="551.44,486.56 583.8800000000001,519 551.44,519" fill="#dae1e6"/><rect x="583.88" y="454.13" width="64.88" height="64.88" fill="#f2f5f7"/><polygon points="583.88,454.13 648.76,454.13 648.76,519.01" fill="#d3d8dc"/><rect x="648.75" y="454.125" width="64.875" height="64.875" fill="#ffffff"/><rect x="648.75" y="454.13" width="32.44" height="32.44" fill="#e3e9ed"/><polygon points="648.75,454.13 681.19,454.13 648.75,486.57" fill="#b1bac0"/><rect x="681.19" y="454.13" width="32.44" height="32.44" fill="#afb8bf"/><polygon points="681.19,454.13 713.6300000000001,454.13 681.19,486.57" fill="#b7c4cf"/><rect x="648.75" y="486.56" width="32.44" height="32.44" fill="#7a8a94"/><polygon points="648.75,486.56 681.19,486.56 681.19,519" fill="#b0b9c0"/><rect x="681.19" y="486.56" width="32.44" height="32.44" fill="#e3e6e8"/><polygon points="681.19,486.56 713.6300000000001,519 681.19,519" fill="#b5c3cd"/></g></svg>